<mxfile host="Electron" modified="2023-11-09T18:08:35.886Z" agent="Mozilla/5.0 (Windows NT 10.0; Win64; x64) AppleWebKit/537.36 (KHTML, like Gecko) draw.io/22.0.2 Chrome/114.0.5735.289 Electron/25.8.4 Safari/537.36" etag="bDE4zI0PpBD_lBZRVati" version="22.0.2" type="device">
  <diagram name="PÃ¡gina-1" id="f_bymo8PDCDBqHDM0VMw">
    <mxGraphModel dx="1480" dy="866" grid="1" gridSize="10" guides="1" tooltips="1" connect="1" arrows="1" fold="1" page="1" pageScale="1" pageWidth="827" pageHeight="1169" math="0" shadow="0">
      <root>
        <mxCell id="0" />
        <mxCell id="1" parent="0" />
        <mxCell id="0H2Btt7lfvQrZiYs79qe-3" style="edgeStyle=orthogonalEdgeStyle;rounded=0;orthogonalLoop=1;jettySize=auto;html=1;exitX=0;exitY=0.5;exitDx=0;exitDy=0;entryX=1;entryY=0.5;entryDx=0;entryDy=0;" edge="1" parent="1" source="0H2Btt7lfvQrZiYs79qe-1" target="0H2Btt7lfvQrZiYs79qe-2">
          <mxGeometry relative="1" as="geometry" />
        </mxCell>
        <mxCell id="0H2Btt7lfvQrZiYs79qe-15" style="edgeStyle=orthogonalEdgeStyle;rounded=0;orthogonalLoop=1;jettySize=auto;html=1;exitX=1;exitY=0.75;exitDx=0;exitDy=0;entryX=0;entryY=0.75;entryDx=0;entryDy=0;" edge="1" parent="1" source="0H2Btt7lfvQrZiYs79qe-1" target="0H2Btt7lfvQrZiYs79qe-10">
          <mxGeometry relative="1" as="geometry" />
        </mxCell>
        <mxCell id="0H2Btt7lfvQrZiYs79qe-1" value="Searcher&lt;br&gt;Cliente de memcache" style="rounded=0;whiteSpace=wrap;html=1;" vertex="1" parent="1">
          <mxGeometry x="220" y="310" width="120" height="60" as="geometry" />
        </mxCell>
        <mxCell id="0H2Btt7lfvQrZiYs79qe-5" style="edgeStyle=orthogonalEdgeStyle;rounded=0;orthogonalLoop=1;jettySize=auto;html=1;exitX=0.5;exitY=0;exitDx=0;exitDy=0;entryX=0.5;entryY=1;entryDx=0;entryDy=0;" edge="1" parent="1" source="0H2Btt7lfvQrZiYs79qe-2" target="0H2Btt7lfvQrZiYs79qe-4">
          <mxGeometry relative="1" as="geometry" />
        </mxCell>
        <mxCell id="0H2Btt7lfvQrZiYs79qe-2" value="Usuario hace la busqueda" style="rounded=0;whiteSpace=wrap;html=1;" vertex="1" parent="1">
          <mxGeometry x="40" y="310" width="120" height="60" as="geometry" />
        </mxCell>
        <mxCell id="0H2Btt7lfvQrZiYs79qe-7" style="edgeStyle=orthogonalEdgeStyle;rounded=0;orthogonalLoop=1;jettySize=auto;html=1;exitX=1;exitY=0.5;exitDx=0;exitDy=0;entryX=0;entryY=0.5;entryDx=0;entryDy=0;" edge="1" parent="1" source="0H2Btt7lfvQrZiYs79qe-4" target="0H2Btt7lfvQrZiYs79qe-6">
          <mxGeometry relative="1" as="geometry" />
        </mxCell>
        <mxCell id="0H2Btt7lfvQrZiYs79qe-4" value="Pasar la busqueda al formato del mensaje de envio" style="rounded=0;whiteSpace=wrap;html=1;" vertex="1" parent="1">
          <mxGeometry x="40" y="170" width="120" height="60" as="geometry" />
        </mxCell>
        <mxCell id="0H2Btt7lfvQrZiYs79qe-8" style="edgeStyle=orthogonalEdgeStyle;rounded=0;orthogonalLoop=1;jettySize=auto;html=1;exitX=0.5;exitY=1;exitDx=0;exitDy=0;entryX=0.5;entryY=0;entryDx=0;entryDy=0;" edge="1" parent="1" source="0H2Btt7lfvQrZiYs79qe-6" target="0H2Btt7lfvQrZiYs79qe-1">
          <mxGeometry relative="1" as="geometry" />
        </mxCell>
        <mxCell id="0H2Btt7lfvQrZiYs79qe-6" value="Mandar mensaje al cache" style="rounded=0;whiteSpace=wrap;html=1;" vertex="1" parent="1">
          <mxGeometry x="220" y="170" width="120" height="60" as="geometry" />
        </mxCell>
        <mxCell id="0H2Btt7lfvQrZiYs79qe-12" style="edgeStyle=orthogonalEdgeStyle;rounded=0;orthogonalLoop=1;jettySize=auto;html=1;exitX=0.5;exitY=1;exitDx=0;exitDy=0;entryX=0.5;entryY=0;entryDx=0;entryDy=0;" edge="1" parent="1" source="0H2Btt7lfvQrZiYs79qe-10" target="0H2Btt7lfvQrZiYs79qe-11">
          <mxGeometry relative="1" as="geometry" />
        </mxCell>
        <mxCell id="0H2Btt7lfvQrZiYs79qe-16" style="edgeStyle=orthogonalEdgeStyle;rounded=0;orthogonalLoop=1;jettySize=auto;html=1;exitX=0;exitY=0.25;exitDx=0;exitDy=0;entryX=1;entryY=0.25;entryDx=0;entryDy=0;" edge="1" parent="1" source="0H2Btt7lfvQrZiYs79qe-10" target="0H2Btt7lfvQrZiYs79qe-1">
          <mxGeometry relative="1" as="geometry" />
        </mxCell>
        <mxCell id="0H2Btt7lfvQrZiYs79qe-27" style="edgeStyle=orthogonalEdgeStyle;rounded=0;orthogonalLoop=1;jettySize=auto;html=1;exitX=1;exitY=0.25;exitDx=0;exitDy=0;entryX=0;entryY=0.25;entryDx=0;entryDy=0;" edge="1" parent="1" source="0H2Btt7lfvQrZiYs79qe-10" target="0H2Btt7lfvQrZiYs79qe-26">
          <mxGeometry relative="1" as="geometry" />
        </mxCell>
        <mxCell id="0H2Btt7lfvQrZiYs79qe-39" style="edgeStyle=orthogonalEdgeStyle;rounded=0;orthogonalLoop=1;jettySize=auto;html=1;exitX=0.25;exitY=0;exitDx=0;exitDy=0;entryX=0.75;entryY=1;entryDx=0;entryDy=0;" edge="1" parent="1" source="0H2Btt7lfvQrZiYs79qe-10" target="0H2Btt7lfvQrZiYs79qe-36">
          <mxGeometry relative="1" as="geometry" />
        </mxCell>
        <mxCell id="0H2Btt7lfvQrZiYs79qe-10" value="memCache&lt;br&gt;Cliente de invIndex" style="rounded=0;whiteSpace=wrap;html=1;" vertex="1" parent="1">
          <mxGeometry x="430" y="310" width="120" height="60" as="geometry" />
        </mxCell>
        <mxCell id="0H2Btt7lfvQrZiYs79qe-13" value="Esta en la cache" style="edgeStyle=orthogonalEdgeStyle;rounded=0;orthogonalLoop=1;jettySize=auto;html=1;exitX=0.5;exitY=1;exitDx=0;exitDy=0;entryX=1;entryY=0.5;entryDx=0;entryDy=0;" edge="1" parent="1" source="0H2Btt7lfvQrZiYs79qe-11" target="0H2Btt7lfvQrZiYs79qe-14">
          <mxGeometry x="-0.4" relative="1" as="geometry">
            <mxPoint x="680" y="460" as="targetPoint" />
            <mxPoint as="offset" />
          </mxGeometry>
        </mxCell>
        <mxCell id="0H2Btt7lfvQrZiYs79qe-23" value="No esta" style="edgeStyle=orthogonalEdgeStyle;rounded=0;orthogonalLoop=1;jettySize=auto;html=1;exitX=1;exitY=0.5;exitDx=0;exitDy=0;entryX=0;entryY=0.5;entryDx=0;entryDy=0;" edge="1" parent="1" source="0H2Btt7lfvQrZiYs79qe-11" target="0H2Btt7lfvQrZiYs79qe-21">
          <mxGeometry relative="1" as="geometry" />
        </mxCell>
        <mxCell id="0H2Btt7lfvQrZiYs79qe-11" value="Buscar la busqueda en cache" style="rounded=0;whiteSpace=wrap;html=1;" vertex="1" parent="1">
          <mxGeometry x="430" y="490" width="120" height="60" as="geometry" />
        </mxCell>
        <mxCell id="0H2Btt7lfvQrZiYs79qe-18" style="edgeStyle=orthogonalEdgeStyle;rounded=0;orthogonalLoop=1;jettySize=auto;html=1;exitX=0.5;exitY=0;exitDx=0;exitDy=0;entryX=0.5;entryY=1;entryDx=0;entryDy=0;" edge="1" parent="1" source="0H2Btt7lfvQrZiYs79qe-14" target="0H2Btt7lfvQrZiYs79qe-17">
          <mxGeometry relative="1" as="geometry" />
        </mxCell>
        <mxCell id="0H2Btt7lfvQrZiYs79qe-14" value="Pasar la respuesta al fomato de mensaje de respuesta" style="rounded=0;whiteSpace=wrap;html=1;" vertex="1" parent="1">
          <mxGeometry x="350" y="600" width="120" height="60" as="geometry" />
        </mxCell>
        <mxCell id="0H2Btt7lfvQrZiYs79qe-25" style="edgeStyle=orthogonalEdgeStyle;rounded=0;orthogonalLoop=1;jettySize=auto;html=1;exitX=0.75;exitY=0;exitDx=0;exitDy=0;entryX=0.25;entryY=1;entryDx=0;entryDy=0;" edge="1" parent="1" source="0H2Btt7lfvQrZiYs79qe-17" target="0H2Btt7lfvQrZiYs79qe-10">
          <mxGeometry relative="1" as="geometry" />
        </mxCell>
        <mxCell id="0H2Btt7lfvQrZiYs79qe-17" value="Mandar la respuesta al searcher" style="rounded=0;whiteSpace=wrap;html=1;" vertex="1" parent="1">
          <mxGeometry x="350" y="400" width="120" height="60" as="geometry" />
        </mxCell>
        <mxCell id="0H2Btt7lfvQrZiYs79qe-22" style="edgeStyle=orthogonalEdgeStyle;rounded=0;orthogonalLoop=1;jettySize=auto;html=1;exitX=0.5;exitY=0;exitDx=0;exitDy=0;entryX=0.75;entryY=1;entryDx=0;entryDy=0;" edge="1" parent="1" source="0H2Btt7lfvQrZiYs79qe-21" target="0H2Btt7lfvQrZiYs79qe-10">
          <mxGeometry relative="1" as="geometry" />
        </mxCell>
        <mxCell id="0H2Btt7lfvQrZiYs79qe-21" value="Mandar el mensaje de busqueda al indice invertido" style="rounded=0;whiteSpace=wrap;html=1;" vertex="1" parent="1">
          <mxGeometry x="620" y="490" width="120" height="60" as="geometry" />
        </mxCell>
        <mxCell id="0H2Btt7lfvQrZiYs79qe-28" style="edgeStyle=orthogonalEdgeStyle;rounded=0;orthogonalLoop=1;jettySize=auto;html=1;exitX=0;exitY=0.75;exitDx=0;exitDy=0;entryX=1;entryY=0.75;entryDx=0;entryDy=0;" edge="1" parent="1" source="0H2Btt7lfvQrZiYs79qe-26" target="0H2Btt7lfvQrZiYs79qe-10">
          <mxGeometry relative="1" as="geometry" />
        </mxCell>
        <mxCell id="0H2Btt7lfvQrZiYs79qe-30" style="edgeStyle=orthogonalEdgeStyle;rounded=0;orthogonalLoop=1;jettySize=auto;html=1;exitX=0.5;exitY=0;exitDx=0;exitDy=0;entryX=0.5;entryY=1;entryDx=0;entryDy=0;" edge="1" parent="1" source="0H2Btt7lfvQrZiYs79qe-26" target="0H2Btt7lfvQrZiYs79qe-29">
          <mxGeometry relative="1" as="geometry">
            <Array as="points">
              <mxPoint x="700" y="290" />
              <mxPoint x="700" y="290" />
            </Array>
          </mxGeometry>
        </mxCell>
        <mxCell id="0H2Btt7lfvQrZiYs79qe-26" value="Inverted Index" style="rounded=0;whiteSpace=wrap;html=1;" vertex="1" parent="1">
          <mxGeometry x="640" y="310" width="120" height="60" as="geometry" />
        </mxCell>
        <mxCell id="0H2Btt7lfvQrZiYs79qe-32" style="edgeStyle=orthogonalEdgeStyle;rounded=0;orthogonalLoop=1;jettySize=auto;html=1;exitX=1;exitY=0.5;exitDx=0;exitDy=0;entryX=0;entryY=0.5;entryDx=0;entryDy=0;" edge="1" parent="1" source="0H2Btt7lfvQrZiYs79qe-29" target="0H2Btt7lfvQrZiYs79qe-31">
          <mxGeometry relative="1" as="geometry" />
        </mxCell>
        <mxCell id="0H2Btt7lfvQrZiYs79qe-29" value="Hacer la busqueda en el indice invertido" style="rounded=0;whiteSpace=wrap;html=1;" vertex="1" parent="1">
          <mxGeometry x="640" y="170" width="120" height="60" as="geometry" />
        </mxCell>
        <mxCell id="0H2Btt7lfvQrZiYs79qe-34" style="edgeStyle=orthogonalEdgeStyle;rounded=0;orthogonalLoop=1;jettySize=auto;html=1;exitX=0.5;exitY=1;exitDx=0;exitDy=0;entryX=0.5;entryY=0;entryDx=0;entryDy=0;" edge="1" parent="1" source="0H2Btt7lfvQrZiYs79qe-31" target="0H2Btt7lfvQrZiYs79qe-33">
          <mxGeometry relative="1" as="geometry" />
        </mxCell>
        <mxCell id="0H2Btt7lfvQrZiYs79qe-31" value="Pasar la busqueda al formato de mensaje de envio" style="rounded=0;whiteSpace=wrap;html=1;" vertex="1" parent="1">
          <mxGeometry x="827" y="170" width="120" height="60" as="geometry" />
        </mxCell>
        <mxCell id="0H2Btt7lfvQrZiYs79qe-35" style="edgeStyle=orthogonalEdgeStyle;rounded=0;orthogonalLoop=1;jettySize=auto;html=1;exitX=0;exitY=0.5;exitDx=0;exitDy=0;entryX=1;entryY=0.5;entryDx=0;entryDy=0;" edge="1" parent="1" source="0H2Btt7lfvQrZiYs79qe-33" target="0H2Btt7lfvQrZiYs79qe-26">
          <mxGeometry relative="1" as="geometry" />
        </mxCell>
        <mxCell id="0H2Btt7lfvQrZiYs79qe-33" value="Mandar el mensaje de respuesta al cache&amp;nbsp;" style="rounded=0;whiteSpace=wrap;html=1;" vertex="1" parent="1">
          <mxGeometry x="827" y="310" width="120" height="60" as="geometry" />
        </mxCell>
        <mxCell id="0H2Btt7lfvQrZiYs79qe-38" style="edgeStyle=orthogonalEdgeStyle;rounded=0;orthogonalLoop=1;jettySize=auto;html=1;exitX=1;exitY=0.5;exitDx=0;exitDy=0;entryX=0;entryY=0.5;entryDx=0;entryDy=0;" edge="1" parent="1" source="0H2Btt7lfvQrZiYs79qe-36" target="0H2Btt7lfvQrZiYs79qe-37">
          <mxGeometry relative="1" as="geometry" />
        </mxCell>
        <mxCell id="0H2Btt7lfvQrZiYs79qe-36" value="Tomar la respuesta del indice inv" style="rounded=0;whiteSpace=wrap;html=1;" vertex="1" parent="1">
          <mxGeometry x="360" y="170" width="120" height="60" as="geometry" />
        </mxCell>
        <mxCell id="0H2Btt7lfvQrZiYs79qe-41" style="edgeStyle=orthogonalEdgeStyle;rounded=0;orthogonalLoop=1;jettySize=auto;html=1;exitX=0.25;exitY=1;exitDx=0;exitDy=0;entryX=0.75;entryY=0;entryDx=0;entryDy=0;" edge="1" parent="1" source="0H2Btt7lfvQrZiYs79qe-37" target="0H2Btt7lfvQrZiYs79qe-10">
          <mxGeometry relative="1" as="geometry" />
        </mxCell>
        <mxCell id="0H2Btt7lfvQrZiYs79qe-37" value="Pasarla al json" style="rounded=0;whiteSpace=wrap;html=1;" vertex="1" parent="1">
          <mxGeometry x="500" y="170" width="120" height="60" as="geometry" />
        </mxCell>
      </root>
    </mxGraphModel>
  </diagram>
</mxfile>
